<?xml version="1.0" standalone="no"?>
<!DOCTYPE svg PUBLIC "-//W3C//DTD SVG 20010904//EN"
 "http://www.w3.org/TR/2001/REC-SVG-20010904/DTD/svg10.dtd">
<svg version="1.0" xmlns="http://www.w3.org/2000/svg"
 width="200.000000pt" height="200.000000pt" viewBox="0 0 1024.000000 1024.000000"
 preserveAspectRatio="xMidYMid meet">

<g transform="translate(0.000000,1024.000000) scale(0.100000,-0.100000)"
fill="#000000" stroke="none">
<path d="M6341 10133 c-13 -2 -45 -26 -71 -52 -41 -41 -50 -57 -64 -118 -15
-68 -41 -152 -151 -493 -29 -91 -69 -214 -88 -275 -20 -60 -72 -225 -117 -365
-45 -140 -117 -365 -160 -500 -43 -135 -114 -357 -158 -495 -45 -137 -115
-358 -157 -490 -192 -602 -310 -969 -385 -1205 -45 -140 -103 -322 -130 -405
l-48 -150 -143 -17 c-79 -9 -310 -35 -514 -57 -203 -22 -779 -85 -1280 -140
-500 -55 -1261 -139 -1690 -186 -429 -47 -805 -88 -835 -91 -107 -12 -187 -69
-209 -151 -24 -86 -7 -127 140 -353 118 -180 419 -645 499 -770 25 -39 101
-157 170 -263 201 -310 283 -436 344 -532 59 -93 101 -158 762 -1180 390 -603
721 -1114 799 -1235 23 -36 104 -162 180 -280 152 -236 166 -255 210 -278 148
-77 305 26 305 201 0 42 84 312 430 1387 43 135 113 351 154 480 41 129 113
354 159 500 47 146 137 427 200 625 64 198 167 522 231 720 63 198 178 557
255 799 77 241 142 439 143 441 2 1 199 23 438 49 239 26 658 72 930 102 1225
135 1427 157 1950 214 1686 185 1538 162 1604 243 26 33 31 48 34 107 3 56 0
77 -17 110 -11 22 -114 147 -227 277 -114 131 -233 267 -263 302 -31 36 -76
87 -101 116 -25 28 -115 131 -200 230 -186 214 -502 578 -539 620 -14 17 -71
82 -126 145 -55 63 -112 128 -126 145 -15 16 -93 107 -174 200 -189 218 -327
377 -340 391 -5 6 -76 87 -156 180 -80 93 -244 282 -364 419 -119 138 -240
277 -269 309 -107 125 -403 465 -479 551 -44 50 -90 107 -103 127 -38 60 -95
92 -168 94 -33 1 -72 0 -85 -3z m350 -835 c101 -116 249 -286 329 -378 80 -91
215 -247 300 -345 85 -98 203 -234 263 -301 59 -68 107 -124 107 -127 0 -4
-57 -56 -620 -566 -190 -173 -365 -332 -390 -355 -25 -23 -115 -104 -200 -181
-85 -77 -157 -142 -160 -145 -3 -3 -50 -46 -105 -95 -55 -50 -125 -113 -155
-141 -30 -28 -102 -93 -160 -145 -58 -52 -110 -98 -116 -104 -287 -263 -378
-345 -382 -340 -2 2 33 115 77 252 44 136 117 363 161 503 109 341 224 700
363 1135 120 376 407 1271 459 1435 30 94 36 110 42 110 2 0 86 -95 187 -212z
m1855 -2134 c318 -367 584 -672 589 -678 131 -143 333 -387 323 -390 -7 -2
-78 -11 -158 -20 -282 -31 -885 -97 -1745 -191 -478 -53 -1014 -111 -1190
-131 -176 -19 -421 -46 -544 -60 -123 -14 -228 -23 -233 -22 -5 2 30 39 79 82
48 43 115 104 148 135 33 31 110 101 170 155 61 55 160 144 220 199 61 56 133
121 161 146 27 25 237 215 465 422 228 207 574 521 769 697 195 177 357 322
361 322 3 0 267 -300 585 -666z m-4236 -2087 c-25 -23 -88 -81 -140 -128 -52
-47 -320 -290 -595 -539 -640 -581 -751 -682 -970 -880 -99 -90 -205 -186
-235 -214 -30 -28 -100 -91 -155 -141 -55 -49 -105 -94 -111 -100 -203 -187
-221 -202 -229 -193 -1 1 -67 102 -145 223 -79 121 -166 256 -195 300 -28 44
-118 184 -200 310 -81 127 -172 266 -200 310 -158 241 -444 689 -442 691 2 2
232 28 512 59 281 31 710 78 955 105 245 27 756 83 1135 125 380 41 762 84
850 94 230 27 219 29 165 -22z m172 -524 c-50 -159 -142 -446 -297 -928 -46
-143 -116 -361 -155 -485 -77 -240 -167 -523 -355 -1110 -181 -565 -344 -1075
-378 -1183 -17 -53 -35 -96 -40 -94 -5 1 -80 112 -166 245 -86 133 -272 421
-413 639 -475 734 -568 880 -568 886 0 5 65 65 840 767 300 271 590 534 644
584 97 89 194 177 286 260 25 23 97 88 160 146 63 57 156 140 205 185 245 223
280 253 283 250 2 -2 -19 -75 -46 -162z"/>
</g>
</svg>
